# xmcd
#
# Track frame offsets:
#	150
#	19296
#	40091
#	56582
#	76847
#	91088
#
# Disc length: 1407 seconds
# Revision: 0
# Processed by: cddbd v1.5.2PL0 Copyright (c) Steve Scherf et al.
# Submitted via: dBpowerAMP V12.0
#
DISCID=3b057d06
DTITLE=Elles Bailey - The Elberton Sessions
DYEAR=2016
DGENRE=Blues
TTITLE0=Wildfires
TTITLE1=Waiting Game
TTITLE2=Perfect Storm
TTITLE3=Girl Who Owned The Blues
TTITLE4=Barrel of a Gun
TTITLE5=What if I
EXTD=
EXTT0=
EXTT1=
EXTT2=
EXTT3=
EXTT4=
EXTT5=
PLAYORDER=
